<svg id="visual" viewBox="0 0 900 900" width="900" height="900" xmlns="http://www.w3.org/2000/svg" xmlns:xlink="http://www.w3.org/1999/xlink" version="1.1"><rect x="0" y="0" width="900" height="900" fill="#931C1C"></rect><path d="M0 617L129 542L257 559L386 604L514 563L643 610L771 550L900 570L900 901L771 901L643 901L514 901L386 901L257 901L129 901L0 901Z" fill="#f5730a"></path><path d="M0 733L129 598L257 666L386 733L514 646L643 583L771 667L900 622L900 901L771 901L643 901L514 901L386 901L257 901L129 901L0 901Z" fill="#da5b09"></path><path d="M0 730L129 753L257 757L386 647L514 698L643 691L771 746L900 653L900 901L771 901L643 901L514 901L386 901L257 901L129 901L0 901Z" fill="#be4407"></path><path d="M0 719L129 773L257 776L386 810L514 810L643 747L771 717L900 735L900 901L771 901L643 901L514 901L386 901L257 901L129 901L0 901Z" fill="#a32d04"></path><path d="M0 784L129 835L257 781L386 799L514 789L643 856L771 865L900 809L900 901L771 901L643 901L514 901L386 901L257 901L129 901L0 901Z" fill="#871400"></path></svg>