<svg id="visual" viewBox="0 0 900 900" width="900" height="900" xmlns="http://www.w3.org/2000/svg" xmlns:xlink="http://www.w3.org/1999/xlink" version="1.1"><rect x="0" y="0" width="900" height="900" fill="#FFFFFF"></rect><defs><linearGradient id="grad1_0" x1="0%" y1="100%" x2="100%" y2="0%"><stop offset="30%" stop-color="#ffffff" stop-opacity="1"></stop><stop offset="70%" stop-color="#ffffff" stop-opacity="1"></stop></linearGradient></defs><defs><linearGradient id="grad2_0" x1="0%" y1="100%" x2="100%" y2="0%"><stop offset="30%" stop-color="#ffffff" stop-opacity="1"></stop><stop offset="70%" stop-color="#ffffff" stop-opacity="1"></stop></linearGradient></defs><g transform="translate(900, 900)"><path d="M-540.9 0C-518.4 -54.2 -495.8 -108.4 -459.4 -149.3C-422.9 -190.1 -372.5 -217.7 -334.9 -243.3C-297.4 -269 -272.6 -292.6 -250.4 -344.6C-228.2 -396.7 -208.5 -477 -167.2 -514.5C-125.8 -551.9 -62.9 -546.4 0 -540.9L0 0Z" fill="#F5730A"></path></g><g transform="translate(0, 0)"><path d="M540.9 0C486 39.5 431 79.1 423.2 137.5C415.5 195.9 454.9 273.3 437.6 318C420.4 362.6 346.4 374.6 293.9 404.5C241.4 434.4 210.4 482.1 165 507.9C119.6 533.6 59.8 537.3 0 540.9L0 0Z" fill="#F5730A"></path></g></svg>