<svg id="visual" viewBox="0 0 900 900" width="900" height="900" xmlns="http://www.w3.org/2000/svg" xmlns:xlink="http://www.w3.org/1999/xlink" version="1.1"><g stroke-width="1" stroke-linejoin="bevel"><path d="M498 407L513 488L609 406Z" fill="#df6009" stroke="#df6009"></path><path d="M513 488L607 498L609 406Z" fill="#a83205" stroke="#a83205"></path><path d="M736 484L683 363L609 406Z" fill="#9d2804" stroke="#9d2804"></path><path d="M588 272L478 301L498 407Z" fill="#f5730a" stroke="#f5730a"></path><path d="M588 272L498 407L609 406Z" fill="#d45609" stroke="#d45609"></path><path d="M498 407L391 535L513 488Z" fill="#d45609" stroke="#d45609"></path><path d="M478 301L407 370L498 407Z" fill="#b33b06" stroke="#b33b06"></path><path d="M683 363L588 272L609 406Z" fill="#be4407" stroke="#be4407"></path><path d="M391 535L507 612L513 488Z" fill="#f5730a" stroke="#f5730a"></path><path d="M513 488L507 612L607 498Z" fill="#c94d08" stroke="#c94d08"></path><path d="M507 612L598 619L607 498Z" fill="#b33b06" stroke="#b33b06"></path><path d="M607 498L736 484L609 406Z" fill="#c94d08" stroke="#c94d08"></path><path d="M738 616L736 484L607 498Z" fill="#df6009" stroke="#df6009"></path><path d="M407 370L391 535L498 407Z" fill="#f5730a" stroke="#f5730a"></path><path d="M588 272L497 239L478 301Z" fill="#d45609" stroke="#d45609"></path><path d="M478 301L394 262L407 370Z" fill="#be4407" stroke="#be4407"></path><path d="M736 484L764 421L683 363Z" fill="#be4407" stroke="#be4407"></path><path d="M717 262L612 216L588 272Z" fill="#9d2804" stroke="#9d2804"></path><path d="M738 616L769 479L736 484Z" fill="#c94d08" stroke="#c94d08"></path><path d="M736 484L769 479L764 421Z" fill="#be4407" stroke="#be4407"></path><path d="M717 262L588 272L683 363Z" fill="#b33b06" stroke="#b33b06"></path><path d="M588 272L612 216L497 239Z" fill="#9d2804" stroke="#9d2804"></path><path d="M507 612L524 667L598 619Z" fill="#c94d08" stroke="#c94d08"></path><path d="M382 723L524 667L507 612Z" fill="#c94d08" stroke="#c94d08"></path><path d="M282 493L370 580L391 535Z" fill="#921f02" stroke="#921f02"></path><path d="M391 535L370 580L507 612Z" fill="#f5730a" stroke="#f5730a"></path><path d="M497 239L394 262L478 301Z" fill="#f5730a" stroke="#f5730a"></path><path d="M407 370L282 493L391 535Z" fill="#871400" stroke="#871400"></path><path d="M814 290L717 262L683 363Z" fill="#b33b06" stroke="#b33b06"></path><path d="M766 629L738 616L726 703Z" fill="#d45609" stroke="#d45609"></path><path d="M598 619L738 616L607 498Z" fill="#c94d08" stroke="#c94d08"></path><path d="M266 432L282 493L407 370Z" fill="#871400" stroke="#871400"></path><path d="M726 703L738 616L598 619Z" fill="#a83205" stroke="#a83205"></path><path d="M738 616L766 629L769 479Z" fill="#921f02" stroke="#921f02"></path><path d="M276 262L266 432L407 370Z" fill="#9d2804" stroke="#9d2804"></path><path d="M497 814L573 730L524 667Z" fill="#ea690a" stroke="#ea690a"></path><path d="M524 667L573 730L598 619Z" fill="#f5730a" stroke="#f5730a"></path><path d="M900 398L814 290L764 421Z" fill="#ea690a" stroke="#ea690a"></path><path d="M764 421L814 290L683 363Z" fill="#9d2804" stroke="#9d2804"></path><path d="M701 163L591 133L612 216Z" fill="#b33b06" stroke="#b33b06"></path><path d="M900 398L764 421L769 479Z" fill="#a83205" stroke="#a83205"></path><path d="M497 239L402 174L394 262Z" fill="#d45609" stroke="#d45609"></path><path d="M394 262L276 262L407 370Z" fill="#f5730a" stroke="#f5730a"></path><path d="M461 105L402 174L497 239Z" fill="#c94d08" stroke="#c94d08"></path><path d="M701 163L612 216L717 262Z" fill="#f5730a" stroke="#f5730a"></path><path d="M612 216L591 133L497 239Z" fill="#df6009" stroke="#df6009"></path><path d="M794 237L701 163L717 262Z" fill="#b33b06" stroke="#b33b06"></path><path d="M814 290L794 237L717 262Z" fill="#9d2804" stroke="#9d2804"></path><path d="M573 730L726 703L598 619Z" fill="#c94d08" stroke="#c94d08"></path><path d="M265 235L276 262L394 262Z" fill="#be4407" stroke="#be4407"></path><path d="M268 631L382 723L370 580Z" fill="#df6009" stroke="#df6009"></path><path d="M370 580L382 723L507 612Z" fill="#f5730a" stroke="#f5730a"></path><path d="M282 493L268 631L370 580Z" fill="#df6009" stroke="#df6009"></path><path d="M227 632L268 631L282 493Z" fill="#d45609" stroke="#d45609"></path><path d="M591 133L461 105L497 239Z" fill="#9d2804" stroke="#9d2804"></path><path d="M402 174L265 235L394 262Z" fill="#871400" stroke="#871400"></path><path d="M276 262L207 408L266 432Z" fill="#a83205" stroke="#a83205"></path><path d="M266 432L187 463L282 493Z" fill="#ea690a" stroke="#ea690a"></path><path d="M900 539L900 398L769 479Z" fill="#c94d08" stroke="#c94d08"></path><path d="M814 290L900 164L794 237Z" fill="#f5730a" stroke="#f5730a"></path><path d="M900 539L769 479L766 629Z" fill="#ea690a" stroke="#ea690a"></path><path d="M295 118L265 235L402 174Z" fill="#be4407" stroke="#be4407"></path><path d="M276 262L222 264L207 408Z" fill="#f5730a" stroke="#f5730a"></path><path d="M791 820L773 719L726 703Z" fill="#a83205" stroke="#a83205"></path><path d="M726 703L773 719L766 629Z" fill="#ea690a" stroke="#ea690a"></path><path d="M900 609L900 539L766 629Z" fill="#df6009" stroke="#df6009"></path><path d="M461 105L419 103L402 174Z" fill="#a83205" stroke="#a83205"></path><path d="M85 367L187 463L207 408Z" fill="#df6009" stroke="#df6009"></path><path d="M207 408L187 463L266 432Z" fill="#d45609" stroke="#d45609"></path><path d="M900 398L900 313L814 290Z" fill="#b33b06" stroke="#b33b06"></path><path d="M824 116L726 111L701 163Z" fill="#871400" stroke="#871400"></path><path d="M824 116L701 163L794 237Z" fill="#921f02" stroke="#921f02"></path><path d="M701 163L726 111L591 133Z" fill="#ea690a" stroke="#ea690a"></path><path d="M591 133L467 0L461 105Z" fill="#df6009" stroke="#df6009"></path><path d="M461 105L467 0L419 103Z" fill="#921f02" stroke="#921f02"></path><path d="M213 177L222 264L265 235Z" fill="#c94d08" stroke="#c94d08"></path><path d="M265 235L222 264L276 262Z" fill="#9d2804" stroke="#9d2804"></path><path d="M431 804L497 814L524 667Z" fill="#b33b06" stroke="#b33b06"></path><path d="M573 730L664 828L726 703Z" fill="#871400" stroke="#871400"></path><path d="M187 463L227 632L282 493Z" fill="#ea690a" stroke="#ea690a"></path><path d="M268 631L291 721L382 723Z" fill="#be4407" stroke="#be4407"></path><path d="M382 723L431 804L524 667Z" fill="#df6009" stroke="#df6009"></path><path d="M299 802L431 804L382 723Z" fill="#871400" stroke="#871400"></path><path d="M204 672L291 721L268 631Z" fill="#9d2804" stroke="#9d2804"></path><path d="M900 688L900 609L766 629Z" fill="#921f02" stroke="#921f02"></path><path d="M629 837L664 828L573 730Z" fill="#871400" stroke="#871400"></path><path d="M773 719L900 688L766 629Z" fill="#a83205" stroke="#a83205"></path><path d="M564 900L629 837L497 814Z" fill="#df6009" stroke="#df6009"></path><path d="M497 814L629 837L573 730Z" fill="#871400" stroke="#871400"></path><path d="M419 103L295 118L402 174Z" fill="#a83205" stroke="#a83205"></path><path d="M291 721L299 802L382 723Z" fill="#a83205" stroke="#a83205"></path><path d="M227 632L204 672L268 631Z" fill="#f5730a" stroke="#f5730a"></path><path d="M86 616L204 672L227 632Z" fill="#f5730a" stroke="#f5730a"></path><path d="M900 164L824 116L794 237Z" fill="#df6009" stroke="#df6009"></path><path d="M791 820L900 688L773 719Z" fill="#c94d08" stroke="#c94d08"></path><path d="M295 118L213 177L265 235Z" fill="#f5730a" stroke="#f5730a"></path><path d="M82 316L85 367L207 408Z" fill="#d45609" stroke="#d45609"></path><path d="M900 313L900 164L814 290Z" fill="#df6009" stroke="#df6009"></path><path d="M694 0L620 0L726 111Z" fill="#f5730a" stroke="#f5730a"></path><path d="M726 111L620 0L591 133Z" fill="#d45609" stroke="#d45609"></path><path d="M419 103L390 0L295 118Z" fill="#9d2804" stroke="#9d2804"></path><path d="M192 774L299 802L291 721Z" fill="#be4407" stroke="#be4407"></path><path d="M476 900L564 900L497 814Z" fill="#be4407" stroke="#be4407"></path><path d="M620 0L467 0L591 133Z" fill="#f5730a" stroke="#f5730a"></path><path d="M734 900L791 820L664 828Z" fill="#f5730a" stroke="#f5730a"></path><path d="M664 828L791 820L726 703Z" fill="#9d2804" stroke="#9d2804"></path><path d="M785 0L726 111L824 116Z" fill="#c94d08" stroke="#c94d08"></path><path d="M785 0L694 0L726 111Z" fill="#871400" stroke="#871400"></path><path d="M476 900L497 814L431 804Z" fill="#ea690a" stroke="#ea690a"></path><path d="M629 837L734 900L664 828Z" fill="#d45609" stroke="#d45609"></path><path d="M427 900L476 900L431 804Z" fill="#b33b06" stroke="#b33b06"></path><path d="M467 0L390 0L419 103Z" fill="#ea690a" stroke="#ea690a"></path><path d="M295 118L217 72L213 177Z" fill="#9d2804" stroke="#9d2804"></path><path d="M82 316L207 408L222 264Z" fill="#9d2804" stroke="#9d2804"></path><path d="M187 463L86 616L227 632Z" fill="#b33b06" stroke="#b33b06"></path><path d="M321 900L427 900L431 804Z" fill="#df6009" stroke="#df6009"></path><path d="M65 237L82 316L222 264Z" fill="#d45609" stroke="#d45609"></path><path d="M204 672L192 774L291 721Z" fill="#a83205" stroke="#a83205"></path><path d="M299 802L321 900L431 804Z" fill="#9d2804" stroke="#9d2804"></path><path d="M97 727L192 774L204 672Z" fill="#f5730a" stroke="#f5730a"></path><path d="M900 164L900 85L824 116Z" fill="#9d2804" stroke="#9d2804"></path><path d="M0 423L62 498L85 367Z" fill="#a83205" stroke="#a83205"></path><path d="M85 367L62 498L187 463Z" fill="#a83205" stroke="#a83205"></path><path d="M564 900L734 900L629 837Z" fill="#df6009" stroke="#df6009"></path><path d="M791 820L900 828L900 688Z" fill="#921f02" stroke="#921f02"></path><path d="M900 85L785 0L824 116Z" fill="#a83205" stroke="#a83205"></path><path d="M292 0L217 72L295 118Z" fill="#be4407" stroke="#be4407"></path><path d="M213 177L65 237L222 264Z" fill="#871400" stroke="#871400"></path><path d="M62 498L86 616L187 463Z" fill="#ea690a" stroke="#ea690a"></path><path d="M390 0L292 0L295 118Z" fill="#9d2804" stroke="#9d2804"></path><path d="M166 900L321 900L299 802Z" fill="#be4407" stroke="#be4407"></path><path d="M800 900L900 828L791 820Z" fill="#871400" stroke="#871400"></path><path d="M734 900L800 900L791 820Z" fill="#921f02" stroke="#921f02"></path><path d="M120 90L65 237L213 177Z" fill="#d45609" stroke="#d45609"></path><path d="M0 306L0 423L85 367Z" fill="#9d2804" stroke="#9d2804"></path><path d="M0 714L97 727L86 616Z" fill="#f5730a" stroke="#f5730a"></path><path d="M86 616L97 727L204 672Z" fill="#d45609" stroke="#d45609"></path><path d="M192 774L166 900L299 802Z" fill="#871400" stroke="#871400"></path><path d="M0 306L85 367L82 316Z" fill="#b33b06" stroke="#b33b06"></path><path d="M62 498L0 624L86 616Z" fill="#a83205" stroke="#a83205"></path><path d="M0 423L0 464L62 498Z" fill="#be4407" stroke="#be4407"></path><path d="M136 0L120 90L217 72Z" fill="#a83205" stroke="#a83205"></path><path d="M217 72L120 90L213 177Z" fill="#be4407" stroke="#be4407"></path><path d="M900 85L900 0L785 0Z" fill="#df6009" stroke="#df6009"></path><path d="M292 0L196 0L217 72Z" fill="#b33b06" stroke="#b33b06"></path><path d="M65 237L0 306L82 316Z" fill="#ea690a" stroke="#ea690a"></path><path d="M0 185L0 306L65 237Z" fill="#871400" stroke="#871400"></path><path d="M800 900L900 900L900 828Z" fill="#d45609" stroke="#d45609"></path><path d="M0 464L0 624L62 498Z" fill="#871400" stroke="#871400"></path><path d="M0 773L90 811L97 727Z" fill="#871400" stroke="#871400"></path><path d="M97 727L90 811L192 774Z" fill="#ea690a" stroke="#ea690a"></path><path d="M90 811L166 900L192 774Z" fill="#921f02" stroke="#921f02"></path><path d="M196 0L136 0L217 72Z" fill="#ea690a" stroke="#ea690a"></path><path d="M120 90L0 185L65 237Z" fill="#be4407" stroke="#be4407"></path><path d="M0 74L0 185L120 90Z" fill="#a83205" stroke="#a83205"></path><path d="M0 624L0 714L86 616Z" fill="#871400" stroke="#871400"></path><path d="M90 811L134 900L166 900Z" fill="#be4407" stroke="#be4407"></path><path d="M0 900L134 900L90 811Z" fill="#921f02" stroke="#921f02"></path><path d="M0 714L0 773L97 727Z" fill="#d45609" stroke="#d45609"></path><path d="M0 0L0 74L120 90Z" fill="#871400" stroke="#871400"></path><path d="M136 0L0 0L120 90Z" fill="#a83205" stroke="#a83205"></path><path d="M0 773L0 900L90 811Z" fill="#c94d08" stroke="#c94d08"></path></g></svg>