<svg id="visual" viewBox="0 0 450 900" width="450" height="900" xmlns="http://www.w3.org/2000/svg" xmlns:xlink="http://www.w3.org/1999/xlink" version="1.1"><g stroke-width="1" stroke-linejoin="bevel"><path d="M236 474L253 469L198 433Z" fill="#ec6911" stroke="#ec6911"></path><path d="M253 469L268 403L198 433Z" fill="#e36015" stroke="#e36015"></path><path d="M169 401L173 440L198 433Z" fill="#c6451c" stroke="#c6451c"></path><path d="M198 433L173 490L236 474Z" fill="#e36015" stroke="#e36015"></path><path d="M236 474L289 485L253 469Z" fill="#9d241d" stroke="#9d241d"></path><path d="M253 469L327 442L268 403Z" fill="#da5718" stroke="#da5718"></path><path d="M268 403L169 401L198 433Z" fill="#d04e1b" stroke="#d04e1b"></path><path d="M130 477L173 490L173 440Z" fill="#d04e1b" stroke="#d04e1b"></path><path d="M173 440L173 490L198 433Z" fill="#a82c1d" stroke="#a82c1d"></path><path d="M238 577L308 525L289 485Z" fill="#e36015" stroke="#e36015"></path><path d="M335 382L266 357L268 403Z" fill="#c6451c" stroke="#c6451c"></path><path d="M268 403L266 357L169 401Z" fill="#a82c1d" stroke="#a82c1d"></path><path d="M289 485L327 442L253 469Z" fill="#931c1c" stroke="#931c1c"></path><path d="M289 485L321 481L327 442Z" fill="#bc3d1d" stroke="#bc3d1d"></path><path d="M212 316L151 373L169 401Z" fill="#e36015" stroke="#e36015"></path><path d="M106 394L130 477L173 440Z" fill="#a82c1d" stroke="#a82c1d"></path><path d="M106 394L173 440L169 401Z" fill="#f5730a" stroke="#f5730a"></path><path d="M238 577L289 485L236 474Z" fill="#d04e1b" stroke="#d04e1b"></path><path d="M289 485L308 525L321 481Z" fill="#f5730a" stroke="#f5730a"></path><path d="M327 442L335 382L268 403Z" fill="#c6451c" stroke="#c6451c"></path><path d="M246 307L212 316L266 357Z" fill="#a82c1d" stroke="#a82c1d"></path><path d="M266 357L212 316L169 401Z" fill="#f5730a" stroke="#f5730a"></path><path d="M308 525L342 500L321 481Z" fill="#b2341d" stroke="#b2341d"></path><path d="M321 481L342 500L327 442Z" fill="#bc3d1d" stroke="#bc3d1d"></path><path d="M327 442L374 419L335 382Z" fill="#9d241d" stroke="#9d241d"></path><path d="M130 477L149 531L173 490Z" fill="#a82c1d" stroke="#a82c1d"></path><path d="M173 490L189 560L236 474Z" fill="#f5730a" stroke="#f5730a"></path><path d="M289 314L282 317L266 357Z" fill="#d04e1b" stroke="#d04e1b"></path><path d="M149 531L189 560L173 490Z" fill="#ec6911" stroke="#ec6911"></path><path d="M282 317L246 307L266 357Z" fill="#b2341d" stroke="#b2341d"></path><path d="M328 326L289 314L266 357Z" fill="#ec6911" stroke="#ec6911"></path><path d="M282 317L280 277L246 307Z" fill="#c6451c" stroke="#c6451c"></path><path d="M124 330L106 394L151 373Z" fill="#931c1c" stroke="#931c1c"></path><path d="M151 373L106 394L169 401Z" fill="#c6451c" stroke="#c6451c"></path><path d="M189 560L238 577L236 474Z" fill="#c6451c" stroke="#c6451c"></path><path d="M308 525L383 565L342 500Z" fill="#e36015" stroke="#e36015"></path><path d="M392 469L374 419L327 442Z" fill="#931c1c" stroke="#931c1c"></path><path d="M335 382L328 326L266 357Z" fill="#e36015" stroke="#e36015"></path><path d="M359 316L328 326L335 382Z" fill="#c6451c" stroke="#c6451c"></path><path d="M246 307L196 295L212 316Z" fill="#a82c1d" stroke="#a82c1d"></path><path d="M212 316L137 317L151 373Z" fill="#e36015" stroke="#e36015"></path><path d="M265 223L196 295L246 307Z" fill="#ec6911" stroke="#ec6911"></path><path d="M15 354L84 417L106 394Z" fill="#b2341d" stroke="#b2341d"></path><path d="M106 394L84 417L130 477Z" fill="#bc3d1d" stroke="#bc3d1d"></path><path d="M130 477L84 541L149 531Z" fill="#e36015" stroke="#e36015"></path><path d="M137 317L124 330L151 373Z" fill="#ec6911" stroke="#ec6911"></path><path d="M196 295L137 317L212 316Z" fill="#f5730a" stroke="#f5730a"></path><path d="M187 609L246 592L238 577Z" fill="#e36015" stroke="#e36015"></path><path d="M238 577L311 578L308 525Z" fill="#da5718" stroke="#da5718"></path><path d="M246 592L311 578L238 577Z" fill="#b2341d" stroke="#b2341d"></path><path d="M383 565L392 469L342 500Z" fill="#bc3d1d" stroke="#bc3d1d"></path><path d="M342 500L392 469L327 442Z" fill="#da5718" stroke="#da5718"></path><path d="M196 295L137 306L137 317Z" fill="#9d241d" stroke="#9d241d"></path><path d="M137 317L130 299L124 330Z" fill="#d04e1b" stroke="#d04e1b"></path><path d="M316 627L320 580L311 578Z" fill="#d04e1b" stroke="#d04e1b"></path><path d="M311 578L320 580L308 525Z" fill="#c6451c" stroke="#c6451c"></path><path d="M299 256L280 277L289 314Z" fill="#d04e1b" stroke="#d04e1b"></path><path d="M289 314L280 277L282 317Z" fill="#ec6911" stroke="#ec6911"></path><path d="M164 274L130 299L137 306Z" fill="#9d241d" stroke="#9d241d"></path><path d="M164 274L137 306L196 295Z" fill="#bc3d1d" stroke="#bc3d1d"></path><path d="M137 306L130 299L137 317Z" fill="#a82c1d" stroke="#a82c1d"></path><path d="M124 330L42 326L106 394Z" fill="#9d241d" stroke="#9d241d"></path><path d="M397 328L359 316L335 382Z" fill="#e36015" stroke="#e36015"></path><path d="M331 257L299 256L289 314Z" fill="#931c1c" stroke="#931c1c"></path><path d="M397 328L335 382L427 365Z" fill="#d04e1b" stroke="#d04e1b"></path><path d="M84 417L62 479L130 477Z" fill="#ec6911" stroke="#ec6911"></path><path d="M167 614L187 609L189 560Z" fill="#c6451c" stroke="#c6451c"></path><path d="M179 262L164 274L196 295Z" fill="#b2341d" stroke="#b2341d"></path><path d="M167 614L189 560L149 531Z" fill="#e36015" stroke="#e36015"></path><path d="M189 560L187 609L238 577Z" fill="#9d241d" stroke="#9d241d"></path><path d="M246 592L316 627L311 578Z" fill="#bc3d1d" stroke="#bc3d1d"></path><path d="M62 479L84 541L130 477Z" fill="#9d241d" stroke="#9d241d"></path><path d="M265 223L179 262L196 295Z" fill="#da5718" stroke="#da5718"></path><path d="M68 272L124 330L130 299Z" fill="#a82c1d" stroke="#a82c1d"></path><path d="M82 561L167 614L149 531Z" fill="#931c1c" stroke="#931c1c"></path><path d="M276 674L316 627L246 592Z" fill="#c6451c" stroke="#c6451c"></path><path d="M331 257L289 314L328 326Z" fill="#b2341d" stroke="#b2341d"></path><path d="M280 277L265 223L246 307Z" fill="#bc3d1d" stroke="#bc3d1d"></path><path d="M12 424L46 487L62 479Z" fill="#c6451c" stroke="#c6451c"></path><path d="M62 479L46 487L84 541Z" fill="#a82c1d" stroke="#a82c1d"></path><path d="M12 424L62 479L84 417Z" fill="#a82c1d" stroke="#a82c1d"></path><path d="M450 473L429 451L392 469Z" fill="#da5718" stroke="#da5718"></path><path d="M392 469L429 451L374 419Z" fill="#da5718" stroke="#da5718"></path><path d="M320 580L383 565L308 525Z" fill="#ec6911" stroke="#ec6911"></path><path d="M427 365L335 382L374 419Z" fill="#d04e1b" stroke="#d04e1b"></path><path d="M359 316L331 257L328 326Z" fill="#a82c1d" stroke="#a82c1d"></path><path d="M35 588L82 561L84 541Z" fill="#e36015" stroke="#e36015"></path><path d="M84 541L82 561L149 531Z" fill="#a82c1d" stroke="#a82c1d"></path><path d="M429 451L428 392L374 419Z" fill="#b2341d" stroke="#b2341d"></path><path d="M401 243L331 257L359 316Z" fill="#9d241d" stroke="#9d241d"></path><path d="M428 392L427 365L374 419Z" fill="#c6451c" stroke="#c6451c"></path><path d="M227 660L246 592L187 609Z" fill="#e36015" stroke="#e36015"></path><path d="M320 580L333 631L383 565Z" fill="#ec6911" stroke="#ec6911"></path><path d="M428 581L408 566L383 565Z" fill="#ec6911" stroke="#ec6911"></path><path d="M383 565L408 566L392 469Z" fill="#a82c1d" stroke="#a82c1d"></path><path d="M265 212L265 223L299 256Z" fill="#d04e1b" stroke="#d04e1b"></path><path d="M299 256L265 223L280 277Z" fill="#9d241d" stroke="#9d241d"></path><path d="M429 451L450 410L428 392Z" fill="#d04e1b" stroke="#d04e1b"></path><path d="M428 392L450 410L427 365Z" fill="#c6451c" stroke="#c6451c"></path><path d="M450 473L450 410L429 451Z" fill="#931c1c" stroke="#931c1c"></path><path d="M327 674L333 631L316 627Z" fill="#e36015" stroke="#e36015"></path><path d="M316 627L333 631L320 580Z" fill="#ec6911" stroke="#ec6911"></path><path d="M35 588L73 583L82 561Z" fill="#a82c1d" stroke="#a82c1d"></path><path d="M82 561L73 583L167 614Z" fill="#e36015" stroke="#e36015"></path><path d="M450 507L450 473L392 469Z" fill="#a82c1d" stroke="#a82c1d"></path><path d="M68 272L130 299L73 261Z" fill="#c6451c" stroke="#c6451c"></path><path d="M68 272L42 326L124 330Z" fill="#d04e1b" stroke="#d04e1b"></path><path d="M173 655L187 609L167 614Z" fill="#9d241d" stroke="#9d241d"></path><path d="M217 665L227 660L187 609Z" fill="#e36015" stroke="#e36015"></path><path d="M15 354L12 424L84 417Z" fill="#9d241d" stroke="#9d241d"></path><path d="M46 487L35 588L84 541Z" fill="#e36015" stroke="#e36015"></path><path d="M145 664L173 655L167 614Z" fill="#d04e1b" stroke="#d04e1b"></path><path d="M408 566L450 507L392 469Z" fill="#f5730a" stroke="#f5730a"></path><path d="M352 211L265 212L299 256Z" fill="#e36015" stroke="#e36015"></path><path d="M265 223L219 186L179 262Z" fill="#da5718" stroke="#da5718"></path><path d="M73 261L130 299L98 226Z" fill="#bc3d1d" stroke="#bc3d1d"></path><path d="M173 655L217 665L187 609Z" fill="#e36015" stroke="#e36015"></path><path d="M227 660L276 674L246 592Z" fill="#931c1c" stroke="#931c1c"></path><path d="M130 299L164 274L98 226Z" fill="#9d241d" stroke="#9d241d"></path><path d="M42 326L15 354L106 394Z" fill="#f5730a" stroke="#f5730a"></path><path d="M0 315L15 354L42 326Z" fill="#a82c1d" stroke="#a82c1d"></path><path d="M0 415L0 452L12 424Z" fill="#ec6911" stroke="#ec6911"></path><path d="M12 424L0 452L46 487Z" fill="#b2341d" stroke="#b2341d"></path><path d="M15 354L0 415L12 424Z" fill="#9d241d" stroke="#9d241d"></path><path d="M0 452L0 464L46 487Z" fill="#a82c1d" stroke="#a82c1d"></path><path d="M427 365L450 339L397 328Z" fill="#c6451c" stroke="#c6451c"></path><path d="M401 243L352 211L331 257Z" fill="#e36015" stroke="#e36015"></path><path d="M450 410L450 339L427 365Z" fill="#e36015" stroke="#e36015"></path><path d="M98 226L164 274L136 197Z" fill="#e36015" stroke="#e36015"></path><path d="M0 260L0 315L42 326Z" fill="#c6451c" stroke="#c6451c"></path><path d="M275 723L276 674L227 660Z" fill="#d04e1b" stroke="#d04e1b"></path><path d="M394 653L428 581L383 565Z" fill="#d04e1b" stroke="#d04e1b"></path><path d="M408 566L450 575L450 507Z" fill="#b2341d" stroke="#b2341d"></path><path d="M389 654L383 565L333 631Z" fill="#9d241d" stroke="#9d241d"></path><path d="M73 583L145 664L167 614Z" fill="#9d241d" stroke="#9d241d"></path><path d="M173 655L203 679L217 665Z" fill="#e36015" stroke="#e36015"></path><path d="M217 665L275 723L227 660Z" fill="#da5718" stroke="#da5718"></path><path d="M145 664L203 679L173 655Z" fill="#c6451c" stroke="#c6451c"></path><path d="M0 580L35 588L46 487Z" fill="#f5730a" stroke="#f5730a"></path><path d="M73 583L82 680L145 664Z" fill="#da5718" stroke="#da5718"></path><path d="M136 197L164 274L179 262Z" fill="#9d241d" stroke="#9d241d"></path><path d="M265 212L219 186L265 223Z" fill="#b2341d" stroke="#b2341d"></path><path d="M294 730L327 674L276 674Z" fill="#f5730a" stroke="#f5730a"></path><path d="M276 674L327 674L316 627Z" fill="#da5718" stroke="#da5718"></path><path d="M401 243L359 316L397 328Z" fill="#ec6911" stroke="#ec6911"></path><path d="M331 257L352 211L299 256Z" fill="#e36015" stroke="#e36015"></path><path d="M267 130L213 166L219 186Z" fill="#d04e1b" stroke="#d04e1b"></path><path d="M98 226L76 237L73 261Z" fill="#f5730a" stroke="#f5730a"></path><path d="M0 259L0 260L68 272Z" fill="#a82c1d" stroke="#a82c1d"></path><path d="M450 585L450 575L428 581Z" fill="#b2341d" stroke="#b2341d"></path><path d="M428 581L450 575L408 566Z" fill="#b2341d" stroke="#b2341d"></path><path d="M450 268L401 243L397 328Z" fill="#e36015" stroke="#e36015"></path><path d="M219 186L136 197L179 262Z" fill="#f5730a" stroke="#f5730a"></path><path d="M98 226L65 181L76 237Z" fill="#bc3d1d" stroke="#bc3d1d"></path><path d="M450 646L450 585L428 581Z" fill="#931c1c" stroke="#931c1c"></path><path d="M0 260L42 326L68 272Z" fill="#f5730a" stroke="#f5730a"></path><path d="M15 354L0 315L0 415Z" fill="#bc3d1d" stroke="#bc3d1d"></path><path d="M327 674L389 654L333 631Z" fill="#bc3d1d" stroke="#bc3d1d"></path><path d="M427 675L394 653L389 654Z" fill="#931c1c" stroke="#931c1c"></path><path d="M389 654L394 653L383 565Z" fill="#9d241d" stroke="#9d241d"></path><path d="M267 130L219 186L265 212Z" fill="#a82c1d" stroke="#a82c1d"></path><path d="M219 186L162 165L136 197Z" fill="#d04e1b" stroke="#d04e1b"></path><path d="M450 339L450 268L397 328Z" fill="#931c1c" stroke="#931c1c"></path><path d="M401 243L401 180L352 211Z" fill="#e36015" stroke="#e36015"></path><path d="M450 268L423 238L401 243Z" fill="#bc3d1d" stroke="#bc3d1d"></path><path d="M0 464L0 580L46 487Z" fill="#931c1c" stroke="#931c1c"></path><path d="M15 628L82 680L73 583Z" fill="#ec6911" stroke="#ec6911"></path><path d="M213 166L162 165L219 186Z" fill="#931c1c" stroke="#931c1c"></path><path d="M136 197L65 181L98 226Z" fill="#c6451c" stroke="#c6451c"></path><path d="M15 628L73 583L35 588Z" fill="#ec6911" stroke="#ec6911"></path><path d="M145 664L188 744L203 679Z" fill="#a82c1d" stroke="#a82c1d"></path><path d="M188 744L275 723L203 679Z" fill="#9d241d" stroke="#9d241d"></path><path d="M203 679L275 723L217 665Z" fill="#e36015" stroke="#e36015"></path><path d="M387 735L427 675L389 654Z" fill="#e36015" stroke="#e36015"></path><path d="M0 580L15 628L35 588Z" fill="#ec6911" stroke="#ec6911"></path><path d="M0 259L73 261L0 235Z" fill="#f5730a" stroke="#f5730a"></path><path d="M0 259L68 272L73 261Z" fill="#e36015" stroke="#e36015"></path><path d="M0 235L73 261L76 237Z" fill="#9d241d" stroke="#9d241d"></path><path d="M450 268L450 235L423 238Z" fill="#bc3d1d" stroke="#bc3d1d"></path><path d="M423 238L401 180L401 243Z" fill="#b2341d" stroke="#b2341d"></path><path d="M352 211L267 130L265 212Z" fill="#a82c1d" stroke="#a82c1d"></path><path d="M293 746L294 730L275 723Z" fill="#9d241d" stroke="#9d241d"></path><path d="M275 723L294 730L276 674Z" fill="#da5718" stroke="#da5718"></path><path d="M394 653L450 646L428 581Z" fill="#c6451c" stroke="#c6451c"></path><path d="M427 675L450 646L394 653Z" fill="#d04e1b" stroke="#d04e1b"></path><path d="M0 580L0 626L15 628Z" fill="#e36015" stroke="#e36015"></path><path d="M24 675L63 702L82 680Z" fill="#c6451c" stroke="#c6451c"></path><path d="M450 235L450 222L423 238Z" fill="#bc3d1d" stroke="#bc3d1d"></path><path d="M0 626L0 633L15 628Z" fill="#931c1c" stroke="#931c1c"></path><path d="M387 735L389 654L327 674Z" fill="#b2341d" stroke="#b2341d"></path><path d="M450 222L401 180L423 238Z" fill="#ec6911" stroke="#ec6911"></path><path d="M71 140L65 181L136 197Z" fill="#ec6911" stroke="#ec6911"></path><path d="M377 130L267 130L352 211Z" fill="#bc3d1d" stroke="#bc3d1d"></path><path d="M203 88L138 114L162 165Z" fill="#931c1c" stroke="#931c1c"></path><path d="M162 165L138 114L136 197Z" fill="#931c1c" stroke="#931c1c"></path><path d="M65 181L0 235L76 237Z" fill="#f5730a" stroke="#f5730a"></path><path d="M144 757L145 664L82 680Z" fill="#ec6911" stroke="#ec6911"></path><path d="M144 757L188 744L145 664Z" fill="#9d241d" stroke="#9d241d"></path><path d="M267 130L243 127L213 166Z" fill="#c6451c" stroke="#c6451c"></path><path d="M210 802L293 746L275 723Z" fill="#da5718" stroke="#da5718"></path><path d="M294 730L387 735L327 674Z" fill="#bc3d1d" stroke="#bc3d1d"></path><path d="M24 675L82 680L15 628Z" fill="#da5718" stroke="#da5718"></path><path d="M0 633L24 675L15 628Z" fill="#c6451c" stroke="#c6451c"></path><path d="M60 725L144 757L82 680Z" fill="#c6451c" stroke="#c6451c"></path><path d="M210 802L334 778L293 746Z" fill="#d04e1b" stroke="#d04e1b"></path><path d="M334 778L387 735L294 730Z" fill="#bc3d1d" stroke="#bc3d1d"></path><path d="M427 675L450 736L450 646Z" fill="#ec6911" stroke="#ec6911"></path><path d="M24 675L60 725L63 702Z" fill="#9d241d" stroke="#9d241d"></path><path d="M63 702L60 725L82 680Z" fill="#f5730a" stroke="#f5730a"></path><path d="M203 88L162 165L213 166Z" fill="#a82c1d" stroke="#a82c1d"></path><path d="M65 181L0 152L0 235Z" fill="#9d241d" stroke="#9d241d"></path><path d="M450 129L377 130L401 180Z" fill="#bc3d1d" stroke="#bc3d1d"></path><path d="M401 180L377 130L352 211Z" fill="#bc3d1d" stroke="#bc3d1d"></path><path d="M239 76L203 88L243 127Z" fill="#9d241d" stroke="#9d241d"></path><path d="M243 127L203 88L213 166Z" fill="#da5718" stroke="#da5718"></path><path d="M138 114L71 140L136 197Z" fill="#a82c1d" stroke="#a82c1d"></path><path d="M0 633L0 688L24 675Z" fill="#a82c1d" stroke="#a82c1d"></path><path d="M24 675L0 688L60 725Z" fill="#d04e1b" stroke="#d04e1b"></path><path d="M277 89L243 127L267 130Z" fill="#f5730a" stroke="#f5730a"></path><path d="M138 114L85 102L71 140Z" fill="#da5718" stroke="#da5718"></path><path d="M322 76L277 89L267 130Z" fill="#bc3d1d" stroke="#bc3d1d"></path><path d="M450 222L450 158L401 180Z" fill="#e36015" stroke="#e36015"></path><path d="M377 130L322 76L267 130Z" fill="#ec6911" stroke="#ec6911"></path><path d="M210 802L275 723L188 744Z" fill="#9d241d" stroke="#9d241d"></path><path d="M293 746L334 778L294 730Z" fill="#f5730a" stroke="#f5730a"></path><path d="M277 89L239 76L243 127Z" fill="#da5718" stroke="#da5718"></path><path d="M210 802L188 744L176 817Z" fill="#f5730a" stroke="#f5730a"></path><path d="M188 817L210 802L176 817Z" fill="#e36015" stroke="#e36015"></path><path d="M155 62L138 114L203 88Z" fill="#9d241d" stroke="#9d241d"></path><path d="M83 73L85 102L138 114Z" fill="#bc3d1d" stroke="#bc3d1d"></path><path d="M71 140L0 152L65 181Z" fill="#ec6911" stroke="#ec6911"></path><path d="M450 777L450 736L387 735Z" fill="#f5730a" stroke="#f5730a"></path><path d="M387 735L450 736L427 675Z" fill="#9d241d" stroke="#9d241d"></path><path d="M0 110L0 152L71 140Z" fill="#f5730a" stroke="#f5730a"></path><path d="M379 74L322 76L377 130Z" fill="#d04e1b" stroke="#d04e1b"></path><path d="M277 89L307 68L239 76Z" fill="#f5730a" stroke="#f5730a"></path><path d="M344 20L320 74L322 76Z" fill="#e36015" stroke="#e36015"></path><path d="M322 76L307 68L277 89Z" fill="#f5730a" stroke="#f5730a"></path><path d="M53 787L124 795L60 725Z" fill="#9d241d" stroke="#9d241d"></path><path d="M60 725L124 795L144 757Z" fill="#ec6911" stroke="#ec6911"></path><path d="M450 158L450 129L401 180Z" fill="#f5730a" stroke="#f5730a"></path><path d="M344 20L307 68L320 74Z" fill="#e36015" stroke="#e36015"></path><path d="M320 74L307 68L322 76Z" fill="#da5718" stroke="#da5718"></path><path d="M0 753L39 764L60 725Z" fill="#9d241d" stroke="#9d241d"></path><path d="M176 817L188 744L144 757Z" fill="#ec6911" stroke="#ec6911"></path><path d="M338 851L358 815L334 778Z" fill="#a82c1d" stroke="#a82c1d"></path><path d="M178 33L155 62L203 88Z" fill="#ec6911" stroke="#ec6911"></path><path d="M178 33L203 88L239 76Z" fill="#9d241d" stroke="#9d241d"></path><path d="M358 815L389 789L334 778Z" fill="#931c1c" stroke="#931c1c"></path><path d="M334 778L389 789L387 735Z" fill="#c6451c" stroke="#c6451c"></path><path d="M124 795L176 817L144 757Z" fill="#d04e1b" stroke="#d04e1b"></path><path d="M127 817L176 817L124 795Z" fill="#a82c1d" stroke="#a82c1d"></path><path d="M450 129L396 88L377 130Z" fill="#ec6911" stroke="#ec6911"></path><path d="M344 20L371 0L361 0Z" fill="#e36015" stroke="#e36015"></path><path d="M396 88L379 74L377 130Z" fill="#9d241d" stroke="#9d241d"></path><path d="M0 688L0 753L60 725Z" fill="#9d241d" stroke="#9d241d"></path><path d="M39 764L53 787L60 725Z" fill="#e36015" stroke="#e36015"></path><path d="M28 819L53 787L39 764Z" fill="#bc3d1d" stroke="#bc3d1d"></path><path d="M155 62L83 73L138 114Z" fill="#9d241d" stroke="#9d241d"></path><path d="M85 102L0 110L71 140Z" fill="#e36015" stroke="#e36015"></path><path d="M92 836L127 817L124 795Z" fill="#b2341d" stroke="#b2341d"></path><path d="M338 851L334 778L259 876Z" fill="#d04e1b" stroke="#d04e1b"></path><path d="M396 814L450 777L389 789Z" fill="#c6451c" stroke="#c6451c"></path><path d="M389 789L450 777L387 735Z" fill="#bc3d1d" stroke="#bc3d1d"></path><path d="M83 73L0 110L85 102Z" fill="#9d241d" stroke="#9d241d"></path><path d="M338 851L378 816L358 815Z" fill="#e36015" stroke="#e36015"></path><path d="M358 815L378 816L389 789Z" fill="#bc3d1d" stroke="#bc3d1d"></path><path d="M228 0L239 76L307 68Z" fill="#f5730a" stroke="#f5730a"></path><path d="M228 0L178 33L239 76Z" fill="#da5718" stroke="#da5718"></path><path d="M155 62L101 20L83 73Z" fill="#b2341d" stroke="#b2341d"></path><path d="M378 816L396 814L389 789Z" fill="#931c1c" stroke="#931c1c"></path><path d="M178 33L154 23L155 62Z" fill="#d04e1b" stroke="#d04e1b"></path><path d="M83 73L0 12L0 110Z" fill="#ec6911" stroke="#ec6911"></path><path d="M189 0L154 23L178 33Z" fill="#b2341d" stroke="#b2341d"></path><path d="M28 819L92 836L53 787Z" fill="#bc3d1d" stroke="#bc3d1d"></path><path d="M53 787L92 836L124 795Z" fill="#e36015" stroke="#e36015"></path><path d="M127 817L184 886L176 817Z" fill="#f5730a" stroke="#f5730a"></path><path d="M184 886L259 876L188 817Z" fill="#e36015" stroke="#e36015"></path><path d="M259 876L334 778L210 802Z" fill="#e36015" stroke="#e36015"></path><path d="M259 876L210 802L188 817Z" fill="#b2341d" stroke="#b2341d"></path><path d="M378 816L376 900L396 814Z" fill="#9d241d" stroke="#9d241d"></path><path d="M450 45L379 74L396 88Z" fill="#f5730a" stroke="#f5730a"></path><path d="M379 74L344 20L322 76Z" fill="#e36015" stroke="#e36015"></path><path d="M0 812L28 819L39 764Z" fill="#9d241d" stroke="#9d241d"></path><path d="M309 0L228 0L307 68Z" fill="#9d241d" stroke="#9d241d"></path><path d="M119 0L101 20L154 23Z" fill="#f5730a" stroke="#f5730a"></path><path d="M154 23L101 20L155 62Z" fill="#a82c1d" stroke="#a82c1d"></path><path d="M184 886L188 817L176 817Z" fill="#d04e1b" stroke="#d04e1b"></path><path d="M228 0L189 0L178 33Z" fill="#a82c1d" stroke="#a82c1d"></path><path d="M53 900L95 900L92 836Z" fill="#e36015" stroke="#e36015"></path><path d="M0 753L0 812L39 764Z" fill="#c6451c" stroke="#c6451c"></path><path d="M450 830L396 814L431 900Z" fill="#da5718" stroke="#da5718"></path><path d="M450 830L450 825L396 814Z" fill="#d04e1b" stroke="#d04e1b"></path><path d="M396 814L450 825L450 777Z" fill="#b2341d" stroke="#b2341d"></path><path d="M344 20L309 0L307 68Z" fill="#da5718" stroke="#da5718"></path><path d="M450 129L450 45L396 88Z" fill="#9d241d" stroke="#9d241d"></path><path d="M344 20L361 0L309 0Z" fill="#9d241d" stroke="#9d241d"></path><path d="M189 0L138 0L154 23Z" fill="#c6451c" stroke="#c6451c"></path><path d="M0 812L0 819L28 819Z" fill="#f5730a" stroke="#f5730a"></path><path d="M176 900L184 886L127 817Z" fill="#c6451c" stroke="#c6451c"></path><path d="M376 900L378 816L338 851Z" fill="#931c1c" stroke="#931c1c"></path><path d="M176 900L127 817L95 900Z" fill="#ec6911" stroke="#ec6911"></path><path d="M259 876L316 882L338 851Z" fill="#bc3d1d" stroke="#bc3d1d"></path><path d="M285 900L316 882L259 876Z" fill="#9d241d" stroke="#9d241d"></path><path d="M138 0L119 0L154 23Z" fill="#da5718" stroke="#da5718"></path><path d="M101 20L48 0L83 73Z" fill="#c6451c" stroke="#c6451c"></path><path d="M371 0L344 20L379 74Z" fill="#ec6911" stroke="#ec6911"></path><path d="M450 45L371 0L379 74Z" fill="#931c1c" stroke="#931c1c"></path><path d="M176 900L201 900L184 886Z" fill="#c6451c" stroke="#c6451c"></path><path d="M184 886L201 900L259 876Z" fill="#931c1c" stroke="#931c1c"></path><path d="M201 900L285 900L259 876Z" fill="#c6451c" stroke="#c6451c"></path><path d="M316 882L323 900L338 851Z" fill="#bc3d1d" stroke="#bc3d1d"></path><path d="M95 900L127 817L92 836Z" fill="#ec6911" stroke="#ec6911"></path><path d="M285 900L323 900L316 882Z" fill="#9d241d" stroke="#9d241d"></path><path d="M119 0L48 0L101 20Z" fill="#da5718" stroke="#da5718"></path><path d="M53 900L92 836L28 819Z" fill="#9d241d" stroke="#9d241d"></path><path d="M323 900L376 900L338 851Z" fill="#931c1c" stroke="#931c1c"></path><path d="M48 0L0 12L83 73Z" fill="#c6451c" stroke="#c6451c"></path><path d="M450 45L450 0L371 0Z" fill="#ec6911" stroke="#ec6911"></path><path d="M48 0L0 0L0 12Z" fill="#f5730a" stroke="#f5730a"></path><path d="M0 900L53 900L28 819Z" fill="#9d241d" stroke="#9d241d"></path><path d="M376 900L431 900L396 814Z" fill="#a82c1d" stroke="#a82c1d"></path><path d="M431 900L450 900L450 830Z" fill="#da5718" stroke="#da5718"></path><path d="M0 819L0 900L28 819Z" fill="#da5718" stroke="#da5718"></path></g></svg>