<svg id="visual" viewBox="0 0 900 900" width="900" height="900" xmlns="http://www.w3.org/2000/svg" xmlns:xlink="http://www.w3.org/1999/xlink" version="1.1"><g stroke-width="1" stroke-linejoin="bevel"><path d="M438 427L481 483L500 423Z" fill="#ea690a" stroke="#ea690a"></path><path d="M438 427L377 466L481 483Z" fill="#921f02" stroke="#921f02"></path><path d="M372 567L501 562L481 483Z" fill="#f5730a" stroke="#f5730a"></path><path d="M481 483L608 530L500 423Z" fill="#ea690a" stroke="#ea690a"></path><path d="M377 466L372 567L481 483Z" fill="#be4407" stroke="#be4407"></path><path d="M618 380L524 299L500 423Z" fill="#f5730a" stroke="#f5730a"></path><path d="M500 423L426 292L438 427Z" fill="#871400" stroke="#871400"></path><path d="M438 427L265 364L377 466Z" fill="#a83205" stroke="#a83205"></path><path d="M524 299L426 292L500 423Z" fill="#921f02" stroke="#921f02"></path><path d="M501 562L608 530L481 483Z" fill="#a83205" stroke="#a83205"></path><path d="M608 530L618 380L500 423Z" fill="#871400" stroke="#871400"></path><path d="M265 364L296 468L377 466Z" fill="#871400" stroke="#871400"></path><path d="M377 466L296 468L372 567Z" fill="#871400" stroke="#871400"></path><path d="M618 380L586 293L524 299Z" fill="#b33b06" stroke="#b33b06"></path><path d="M524 299L436 211L426 292Z" fill="#be4407" stroke="#be4407"></path><path d="M426 292L265 364L438 427Z" fill="#b33b06" stroke="#b33b06"></path><path d="M492 693L629 608L501 562Z" fill="#f5730a" stroke="#f5730a"></path><path d="M501 562L629 608L608 530Z" fill="#9d2804" stroke="#9d2804"></path><path d="M608 530L714 437L618 380Z" fill="#871400" stroke="#871400"></path><path d="M629 608L685 535L608 530Z" fill="#ea690a" stroke="#ea690a"></path><path d="M618 380L715 270L586 293Z" fill="#df6009" stroke="#df6009"></path><path d="M337 207L302 286L426 292Z" fill="#a83205" stroke="#a83205"></path><path d="M426 292L302 286L265 364Z" fill="#c94d08" stroke="#c94d08"></path><path d="M535 166L436 211L524 299Z" fill="#be4407" stroke="#be4407"></path><path d="M685 535L714 437L608 530Z" fill="#be4407" stroke="#be4407"></path><path d="M413 706L492 693L501 562Z" fill="#9d2804" stroke="#9d2804"></path><path d="M233 560L265 605L372 567Z" fill="#ea690a" stroke="#ea690a"></path><path d="M372 567L413 706L501 562Z" fill="#ea690a" stroke="#ea690a"></path><path d="M233 560L372 567L296 468Z" fill="#921f02" stroke="#921f02"></path><path d="M190 518L233 560L296 468Z" fill="#ea690a" stroke="#ea690a"></path><path d="M204 272L220 365L265 364Z" fill="#c94d08" stroke="#c94d08"></path><path d="M265 364L220 365L296 468Z" fill="#c94d08" stroke="#c94d08"></path><path d="M307 684L413 706L372 567Z" fill="#f5730a" stroke="#f5730a"></path><path d="M436 211L337 207L426 292Z" fill="#9d2804" stroke="#9d2804"></path><path d="M302 286L204 272L265 364Z" fill="#be4407" stroke="#be4407"></path><path d="M629 608L712 600L685 535Z" fill="#c94d08" stroke="#c94d08"></path><path d="M685 535L788 511L714 437Z" fill="#d45609" stroke="#d45609"></path><path d="M717 699L712 600L629 608Z" fill="#ea690a" stroke="#ea690a"></path><path d="M586 293L535 166L524 299Z" fill="#be4407" stroke="#be4407"></path><path d="M436 211L373 131L337 207Z" fill="#f5730a" stroke="#f5730a"></path><path d="M614 196L535 166L586 293Z" fill="#d45609" stroke="#d45609"></path><path d="M223 717L307 684L265 605Z" fill="#ea690a" stroke="#ea690a"></path><path d="M265 605L307 684L372 567Z" fill="#df6009" stroke="#df6009"></path><path d="M696 215L614 196L586 293Z" fill="#ea690a" stroke="#ea690a"></path><path d="M220 365L190 518L296 468Z" fill="#be4407" stroke="#be4407"></path><path d="M233 560L223 717L265 605Z" fill="#f5730a" stroke="#f5730a"></path><path d="M714 437L715 270L618 380Z" fill="#f5730a" stroke="#f5730a"></path><path d="M497 825L602 728L492 693Z" fill="#ea690a" stroke="#ea690a"></path><path d="M492 693L602 728L629 608Z" fill="#b33b06" stroke="#b33b06"></path><path d="M211 237L204 272L302 286Z" fill="#c94d08" stroke="#c94d08"></path><path d="M220 365L131 362L190 518Z" fill="#9d2804" stroke="#9d2804"></path><path d="M715 270L696 215L586 293Z" fill="#df6009" stroke="#df6009"></path><path d="M562 70L485 120L535 166Z" fill="#f5730a" stroke="#f5730a"></path><path d="M712 600L788 511L685 535Z" fill="#df6009" stroke="#df6009"></path><path d="M714 437L831 386L715 270Z" fill="#be4407" stroke="#be4407"></path><path d="M562 70L535 166L614 196Z" fill="#f5730a" stroke="#f5730a"></path><path d="M535 166L485 120L436 211Z" fill="#ea690a" stroke="#ea690a"></path><path d="M337 207L211 237L302 286Z" fill="#871400" stroke="#871400"></path><path d="M485 120L373 131L436 211Z" fill="#871400" stroke="#871400"></path><path d="M267 128L211 237L337 207Z" fill="#9d2804" stroke="#9d2804"></path><path d="M108 262L131 362L204 272Z" fill="#9d2804" stroke="#9d2804"></path><path d="M204 272L131 362L220 365Z" fill="#9d2804" stroke="#9d2804"></path><path d="M602 728L717 699L629 608Z" fill="#9d2804" stroke="#9d2804"></path><path d="M712 600L802 576L788 511Z" fill="#df6009" stroke="#df6009"></path><path d="M779 717L802 576L712 600Z" fill="#be4407" stroke="#be4407"></path><path d="M131 362L120 527L190 518Z" fill="#921f02" stroke="#921f02"></path><path d="M190 518L120 527L233 560Z" fill="#9d2804" stroke="#9d2804"></path><path d="M900 388L831 386L900 512Z" fill="#921f02" stroke="#921f02"></path><path d="M788 511L831 386L714 437Z" fill="#f5730a" stroke="#f5730a"></path><path d="M715 270L815 202L696 215Z" fill="#d45609" stroke="#d45609"></path><path d="M79 600L223 717L233 560Z" fill="#f5730a" stroke="#f5730a"></path><path d="M378 830L497 825L413 706Z" fill="#a83205" stroke="#a83205"></path><path d="M413 706L497 825L492 693Z" fill="#921f02" stroke="#921f02"></path><path d="M373 131L267 128L337 207Z" fill="#9d2804" stroke="#9d2804"></path><path d="M211 237L108 262L204 272Z" fill="#ea690a" stroke="#ea690a"></path><path d="M202 102L267 128L262 0Z" fill="#be4407" stroke="#be4407"></path><path d="M378 830L413 706L307 684Z" fill="#d45609" stroke="#d45609"></path><path d="M602 728L696 811L717 699Z" fill="#df6009" stroke="#df6009"></path><path d="M735 101L562 70L614 196Z" fill="#df6009" stroke="#df6009"></path><path d="M485 120L412 0L373 131Z" fill="#df6009" stroke="#df6009"></path><path d="M312 838L378 830L307 684Z" fill="#b33b06" stroke="#b33b06"></path><path d="M511 900L562 832L497 825Z" fill="#921f02" stroke="#921f02"></path><path d="M497 825L562 832L602 728Z" fill="#9d2804" stroke="#9d2804"></path><path d="M121 194L108 262L211 237Z" fill="#d45609" stroke="#d45609"></path><path d="M0 488L79 600L120 527Z" fill="#be4407" stroke="#be4407"></path><path d="M696 811L779 717L717 699Z" fill="#c94d08" stroke="#c94d08"></path><path d="M717 699L779 717L712 600Z" fill="#921f02" stroke="#921f02"></path><path d="M831 386L838 260L715 270Z" fill="#9d2804" stroke="#9d2804"></path><path d="M696 215L735 101L614 196Z" fill="#be4407" stroke="#be4407"></path><path d="M0 488L120 527L131 362Z" fill="#be4407" stroke="#be4407"></path><path d="M120 527L79 600L233 560Z" fill="#ea690a" stroke="#ea690a"></path><path d="M189 764L312 838L223 717Z" fill="#be4407" stroke="#be4407"></path><path d="M223 717L312 838L307 684Z" fill="#c94d08" stroke="#c94d08"></path><path d="M414 900L511 900L497 825Z" fill="#df6009" stroke="#df6009"></path><path d="M838 260L815 202L715 270Z" fill="#be4407" stroke="#be4407"></path><path d="M91 701L189 764L223 717Z" fill="#ea690a" stroke="#ea690a"></path><path d="M562 832L696 811L602 728Z" fill="#be4407" stroke="#be4407"></path><path d="M202 102L121 194L211 237Z" fill="#df6009" stroke="#df6009"></path><path d="M831 386L900 325L838 260Z" fill="#ea690a" stroke="#ea690a"></path><path d="M838 260L900 236L815 202Z" fill="#871400" stroke="#871400"></path><path d="M900 512L831 386L788 511Z" fill="#ea690a" stroke="#ea690a"></path><path d="M900 512L788 511L802 576Z" fill="#b33b06" stroke="#b33b06"></path><path d="M900 584L900 512L802 576Z" fill="#871400" stroke="#871400"></path><path d="M769 120L735 101L696 215Z" fill="#9d2804" stroke="#9d2804"></path><path d="M262 0L267 128L373 131Z" fill="#ea690a" stroke="#ea690a"></path><path d="M267 128L202 102L211 237Z" fill="#b33b06" stroke="#b33b06"></path><path d="M815 202L769 120L696 215Z" fill="#b33b06" stroke="#b33b06"></path><path d="M900 388L900 325L831 386Z" fill="#921f02" stroke="#921f02"></path><path d="M900 88L807 0L769 120Z" fill="#871400" stroke="#871400"></path><path d="M607 0L516 0L562 70Z" fill="#d45609" stroke="#d45609"></path><path d="M562 70L516 0L485 120Z" fill="#871400" stroke="#871400"></path><path d="M516 0L412 0L485 120Z" fill="#9d2804" stroke="#9d2804"></path><path d="M779 717L900 584L802 576Z" fill="#c94d08" stroke="#c94d08"></path><path d="M900 738L900 584L779 717Z" fill="#f5730a" stroke="#f5730a"></path><path d="M414 900L497 825L378 830Z" fill="#ea690a" stroke="#ea690a"></path><path d="M562 832L577 900L696 811Z" fill="#a83205" stroke="#a83205"></path><path d="M79 600L91 701L223 717Z" fill="#9d2804" stroke="#9d2804"></path><path d="M336 900L414 900L378 830Z" fill="#be4407" stroke="#be4407"></path><path d="M336 900L378 830L312 838Z" fill="#d45609" stroke="#d45609"></path><path d="M511 900L577 900L562 832Z" fill="#f5730a" stroke="#f5730a"></path><path d="M736 0L607 0L735 101Z" fill="#f5730a" stroke="#f5730a"></path><path d="M735 101L607 0L562 70Z" fill="#f5730a" stroke="#f5730a"></path><path d="M0 379L0 488L131 362Z" fill="#871400" stroke="#871400"></path><path d="M79 600L0 688L91 701Z" fill="#df6009" stroke="#df6009"></path><path d="M0 379L131 362L108 262Z" fill="#df6009" stroke="#df6009"></path><path d="M202 102L132 117L121 194Z" fill="#9d2804" stroke="#9d2804"></path><path d="M0 268L0 379L108 262Z" fill="#b33b06" stroke="#b33b06"></path><path d="M188 0L132 117L202 102Z" fill="#921f02" stroke="#921f02"></path><path d="M239 900L312 838L189 764Z" fill="#c94d08" stroke="#c94d08"></path><path d="M239 900L336 900L312 838Z" fill="#9d2804" stroke="#9d2804"></path><path d="M0 268L108 262L0 217Z" fill="#b33b06" stroke="#b33b06"></path><path d="M900 325L900 236L838 260Z" fill="#b33b06" stroke="#b33b06"></path><path d="M705 900L799 802L696 811Z" fill="#f5730a" stroke="#f5730a"></path><path d="M696 811L799 802L779 717Z" fill="#df6009" stroke="#df6009"></path><path d="M412 0L262 0L373 131Z" fill="#d45609" stroke="#d45609"></path><path d="M0 488L0 604L79 600Z" fill="#921f02" stroke="#921f02"></path><path d="M0 217L108 262L121 194Z" fill="#9d2804" stroke="#9d2804"></path><path d="M66 791L189 764L91 701Z" fill="#ea690a" stroke="#ea690a"></path><path d="M79 900L239 900L189 764Z" fill="#f5730a" stroke="#f5730a"></path><path d="M577 900L705 900L696 811Z" fill="#be4407" stroke="#be4407"></path><path d="M900 791L900 738L799 802Z" fill="#871400" stroke="#871400"></path><path d="M799 802L900 738L779 717Z" fill="#d45609" stroke="#d45609"></path><path d="M807 0L735 101L769 120Z" fill="#921f02" stroke="#921f02"></path><path d="M807 0L736 0L735 101Z" fill="#871400" stroke="#871400"></path><path d="M132 117L0 217L121 194Z" fill="#921f02" stroke="#921f02"></path><path d="M0 60L0 217L132 117Z" fill="#a83205" stroke="#a83205"></path><path d="M262 0L188 0L202 102Z" fill="#c94d08" stroke="#c94d08"></path><path d="M0 604L0 688L79 600Z" fill="#b33b06" stroke="#b33b06"></path><path d="M0 766L66 791L91 701Z" fill="#921f02" stroke="#921f02"></path><path d="M834 900L900 791L799 802Z" fill="#921f02" stroke="#921f02"></path><path d="M900 88L769 120L815 202Z" fill="#df6009" stroke="#df6009"></path><path d="M900 236L900 88L815 202Z" fill="#a83205" stroke="#a83205"></path><path d="M0 688L0 766L91 701Z" fill="#871400" stroke="#871400"></path><path d="M66 791L79 900L189 764Z" fill="#b33b06" stroke="#b33b06"></path><path d="M188 0L112 0L132 117Z" fill="#c94d08" stroke="#c94d08"></path><path d="M705 900L834 900L799 802Z" fill="#df6009" stroke="#df6009"></path><path d="M0 900L79 900L66 791Z" fill="#f5730a" stroke="#f5730a"></path><path d="M112 0L0 60L132 117Z" fill="#c94d08" stroke="#c94d08"></path><path d="M900 88L900 0L807 0Z" fill="#f5730a" stroke="#f5730a"></path><path d="M834 900L900 900L900 791Z" fill="#c94d08" stroke="#c94d08"></path><path d="M112 0L0 0L0 60Z" fill="#9d2804" stroke="#9d2804"></path><path d="M0 766L0 900L66 791Z" fill="#c94d08" stroke="#c94d08"></path></g></svg>