<svg id="visual" viewBox="0 0 900 900" width="900" height="900" xmlns="http://www.w3.org/2000/svg" xmlns:xlink="http://www.w3.org/1999/xlink" version="1.1"><rect x="0" y="0" width="900" height="900" fill="#FFFFFF"></rect><path d="M0 621L21.5 623.7C43 626.3 86 631.7 128.8 625.8C171.7 620 214.3 603 257.2 589.3C300 575.7 343 565.3 385.8 567.5C428.7 569.7 471.3 584.3 514.2 586.5C557 588.7 600 578.3 642.8 585.7C685.7 593 728.3 618 771.2 613C814 608 857 573 878.5 555.5L900 538L900 901L878.5 901C857 901 814 901 771.2 901C728.3 901 685.7 901 642.8 901C600 901 557 901 514.2 901C471.3 901 428.7 901 385.8 901C343 901 300 901 257.2 901C214.3 901 171.7 901 128.8 901C86 901 43 901 21.5 901L0 901Z" fill="#f5730a"></path><path d="M0 606L21.5 606.5C43 607 86 608 128.8 624.2C171.7 640.3 214.3 671.7 257.2 678.2C300 684.7 343 666.3 385.8 648.7C428.7 631 471.3 614 514.2 608C557 602 600 607 642.8 612C685.7 617 728.3 622 771.2 627.8C814 633.7 857 640.3 878.5 643.7L900 647L900 901L878.5 901C857 901 814 901 771.2 901C728.3 901 685.7 901 642.8 901C600 901 557 901 514.2 901C471.3 901 428.7 901 385.8 901C343 901 300 901 257.2 901C214.3 901 171.7 901 128.8 901C86 901 43 901 21.5 901L0 901Z" fill="#da5b09"></path><path d="M0 714L21.5 705.8C43 697.7 86 681.3 128.8 677.3C171.7 673.3 214.3 681.7 257.2 696.5C300 711.3 343 732.7 385.8 740C428.7 747.3 471.3 740.7 514.2 742.7C557 744.7 600 755.3 642.8 750.7C685.7 746 728.3 726 771.2 712.3C814 698.7 857 691.3 878.5 687.7L900 684L900 901L878.5 901C857 901 814 901 771.2 901C728.3 901 685.7 901 642.8 901C600 901 557 901 514.2 901C471.3 901 428.7 901 385.8 901C343 901 300 901 257.2 901C214.3 901 171.7 901 128.8 901C86 901 43 901 21.5 901L0 901Z" fill="#be4407"></path><path d="M0 798L21.5 797.8C43 797.7 86 797.3 128.8 799.2C171.7 801 214.3 805 257.2 800.3C300 795.7 343 782.3 385.8 773.7C428.7 765 471.3 761 514.2 756.7C557 752.3 600 747.7 642.8 753.2C685.7 758.7 728.3 774.3 771.2 781.2C814 788 857 786 878.5 785L900 784L900 901L878.5 901C857 901 814 901 771.2 901C728.3 901 685.7 901 642.8 901C600 901 557 901 514.2 901C471.3 901 428.7 901 385.8 901C343 901 300 901 257.2 901C214.3 901 171.7 901 128.8 901C86 901 43 901 21.5 901L0 901Z" fill="#a32d04"></path><path d="M0 827L21.5 821.3C43 815.7 86 804.3 128.8 804.3C171.7 804.3 214.3 815.7 257.2 821.7C300 827.7 343 828.3 385.8 824.3C428.7 820.3 471.3 811.7 514.2 810.7C557 809.7 600 816.3 642.8 816.3C685.7 816.3 728.3 809.7 771.2 812.8C814 816 857 829 878.5 835.5L900 842L900 901L878.5 901C857 901 814 901 771.2 901C728.3 901 685.7 901 642.8 901C600 901 557 901 514.2 901C471.3 901 428.7 901 385.8 901C343 901 300 901 257.2 901C214.3 901 171.7 901 128.8 901C86 901 43 901 21.5 901L0 901Z" fill="#871400"></path></svg>