<svg id="visual" viewBox="0 0 450 900" width="450" height="900" xmlns="http://www.w3.org/2000/svg" xmlns:xlink="http://www.w3.org/1999/xlink" version="1.1"><rect x="0" y="0" width="450" height="900" fill="#931C1C"></rect><path d="M0 623L64 663L129 633L193 542L257 623L321 669L386 526L450 591L450 901L386 901L321 901L257 901L193 901L129 901L64 901L0 901Z" fill="#f5730a"></path><path d="M0 718L64 637L129 637L193 647L257 699L321 655L386 660L450 696L450 901L386 901L321 901L257 901L193 901L129 901L64 901L0 901Z" fill="#da5b09"></path><path d="M0 756L64 720L129 741L193 672L257 674L321 722L386 740L450 750L450 901L386 901L321 901L257 901L193 901L129 901L64 901L0 901Z" fill="#be4407"></path><path d="M0 794L64 782L129 764L193 736L257 737L321 735L386 777L450 735L450 901L386 901L321 901L257 901L193 901L129 901L64 901L0 901Z" fill="#a32d04"></path><path d="M0 805L64 854L129 832L193 837L257 846L321 809L386 841L450 814L450 901L386 901L321 901L257 901L193 901L129 901L64 901L0 901Z" fill="#871400"></path></svg>