<svg id="visual" viewBox="0 0 900 900" width="900" height="900" xmlns="http://www.w3.org/2000/svg" xmlns:xlink="http://www.w3.org/1999/xlink" version="1.1"><rect x="0" y="0" width="900" height="900" fill="#931C1C"></rect><path d="M0 644L113 575L225 633L338 588L450 511L563 544L675 524L788 671L900 664L900 901L788 901L675 901L563 901L450 901L338 901L225 901L113 901L0 901Z" fill="#f5730a"></path><path d="M0 582L113 675L225 711L338 699L450 613L563 700L675 717L788 730L900 633L900 901L788 901L675 901L563 901L450 901L338 901L225 901L113 901L0 901Z" fill="#da5b09"></path><path d="M0 646L113 712L225 668L338 676L450 752L563 701L675 675L788 711L900 693L900 901L788 901L675 901L563 901L450 901L338 901L225 901L113 901L0 901Z" fill="#be4407"></path><path d="M0 820L113 815L225 767L338 730L450 809L563 721L675 817L788 732L900 730L900 901L788 901L675 901L563 901L450 901L338 901L225 901L113 901L0 901Z" fill="#a32d04"></path><path d="M0 817L113 860L225 811L338 860L450 851L563 804L675 797L788 834L900 835L900 901L788 901L675 901L563 901L450 901L338 901L225 901L113 901L0 901Z" fill="#871400"></path></svg>